#!OML:ASF H:\Terrain\Patient Classification 1\Terrain2\Thursday\justin.ASF
:FULLY-SPECIFIED
:DEGREES
4034
root 19.3862 23.9985 7.69328 1269.34 -111.812 170.067
lowerback 7.55641 0.954856 2.29641
upperback 2.08158 1.45022 2.65143
thorax -2.09569 0.690243 1.31185
lowerneck -12.553 -2.78281 -10.5628
upperneck 38.554 -5.22771 7.11695
head 16.4125 -3.19323 4.01712
rclavicle 1.86858e-014 3.1408e-014
rhumerus -29.9873 -0.801861 -84.2936
rradius 33.8184
rwrist -14.1861
rhand -21.2817 10.0354
rfingers 7.12502
rthumb 5.1024 -19.8832
lclavicle 1.86858e-014 3.1408e-014
lhumerus -33.7841 5.83203 86.7732
lradius 28.813
lwrist 1.8855
lhand -24.9035 21.1328
lfingers 7.12502
lthumb 1.60477 51.1066
rfemur -6.16484 6.43752 27.1942
rtibia 27.5548
rfoot -17.8907 1.06468
rtoes 13.5433
lfemur -20.3939 -11.3783 -5.94555
ltibia 34.4709
lfoot -6.73451 -20.7718
ltoes 12.6231
4035
root 19.3599 24.0052 7.74533 1269.28 -110.841 170.12
lowerback 7.67082 1.15403 2.3687
upperback 2.11048 1.71953 2.41177
thorax -2.12159 0.824748 0.997185
lowerneck -12.6576 -2.99706 -10.4113
upperneck 38.4928 -5.60077 7.13169
head 16.4525 -3.32216 3.92648
rclavicle -6.15736e-014 9.54166e-015
rhumerus -29.9736 -1.77457 -84.1516
rradius 33.6043
rwrist -13.36
rhand -21.2937 9.85395
rfingers 7.12502
rthumb 5.09081 -20.0649
lclavicle -6.15736e-014 9.54166e-015
lhumerus -33.662 4.93929 86.8548
lradius 28.8738
lwrist 2.25048
lhand -23.9295 21.1048
lfingers 7.12502
lthumb 2.54544 51.0693
rfemur -6.04521 6.89628 26.8697
rtibia 27.6994
rfoot -18.1793 1.61144
rtoes 14.9307
lfemur -19.9889 -11.7184 -6.08703
ltibia 33.325
lfoot -6.51086 -21.2103
ltoes 11.5907
4036
root 19.3356 24.006 7.8045 1269.88 -109.911 169.413
lowerback 7.78029 1.24737 2.71611
upperback 2.14996 1.86876 2.28104
thorax -2.12575 0.897588 0.652105
lowerneck -12.7313 -3.00542 -10.2529
upperneck 38.5134 -5.68643 7.17165
head 16.4874 -3.33317 3.8998
rclavicle -9.19379e-015 8.74653e-015
rhumerus -29.8125 -2.83899 -83.9248
rradius 33.0969
rwrist -12.3654
rhand -21.1691 9.56247
rfingers 7.12502
rthumb 5.21109 -20.3535
lclavicle -9.19379e-015 8.74653e-015
lhumerus -33.602 4.49066 86.7701
lradius 28.8666
lwrist 2.26979
lhand -22.8587 20.2656
lfingers 7.12502
lthumb 3.57958 50.2153
rfemur -5.93636 7.40204 26.8362
rtibia 27.9684
rfoot -18.4979 2.03702
rtoes 15.1511
lfemur -19.5355 -11.9655 -5.96599
ltibia 32.3924
lfoot -5.46687 -21.5749
ltoes 13.3136
4037
root 19.31 23.9912 7.87208 1270.16 -108.838 169.143
lowerback 7.68574 1.29643 2.80549
upperback 2.18666 1.93274 2.19076
thorax -2.02865 0.930347 0.505842
lowerneck -12.6852 -2.88164 -10.0955
upperneck 38.4757 -5.55091 7.14266
head 16.4276 -3.26308 3.87936
rclavicle 6.38596e-014 9.54166e-015
rhumerus -29.7943 -2.57672 -83.9023
rradius 32.9201
rwrist -12.974
rhand -21.0231 9.83733
rfingers 7.12502
rthumb 5.352 -20.0751
lclavicle 6.38596e-014 9.54166e-015
lhumerus -33.614 4.33563 86.7844
lradius 28.8102
lwrist 1.73909
lhand -23.0293 19.6806
lfingers 7.12502
lthumb 3.41478 49.633
rfemur -5.83528 7.84159 26.5092
rtibia 28.0614
rfoot -18.6245 2.69402
rtoes 15.5764
lfemur -19.166 -11.7687 -6.25845
ltibia 31.8024
lfoot -4.64187 -21.5945
ltoes 13.9349
4038
root 19.2774 23.9645 7.93275 1270.71 -107.737 168.641
lowerback 7.51168 1.36151 2.75691
upperback 2.24422 2.00491 2.21144
thorax -1.8743 0.967683 0.552996
lowerneck -12.7779 -2.76511 -9.90251
upperneck 38.4906 -5.33834 6.90337
head 16.4123 -3.17987 3.7724
rclavicle -2.0773e-014 -1.19271e-015
rhumerus -29.7741 -1.8279 -83.915
rradius 32.92
rwrist -14.0359
rhand -21.0068 10.5745
rfingers 7.12502
rthumb 5.36777 -19.3375
lclavicle -2.0773e-014 -1.19271e-015
lhumerus -33.6086 4.1703 86.9466
lradius 28.8218
lwrist 1.49541
lhand -23.4036 19.5255
lfingers 7.12502
lthumb 3.05337 49.4834
rfemur -5.79092 8.19961 26.2291
rtibia 28.1745
rfoot -18.796 3.48133
rtoes 16.2552
lfemur -18.9595 -9.69536 -7.06139
ltibia 31.4626
lfoot -6.82003 -21.4007
ltoes -1.39239
4039
root 19.2424 23.9784 7.98747 1272.24 -106.777 167.09
lowerback 7.35062 1.34135 2.89762
upperback 2.25126 1.98158 2.40201
thorax -1.7796 0.955135 0.676954
lowerneck -12.6645 -2.56653 -9.89979
upperneck 38.442 -4.96761 6.67805
head 16.3009 -3.06091 3.73236
rclavicle -8.94531e-016 -5.96354e-015
rhumerus -29.7348 -1.43943 -83.7732
rradius 32.7804
rwrist -14.2867
rhand -21.1284 10.8417
rfingers 7.12502
rthumb 5.25037 -19.0732
lclavicle -8.94531e-016 -5.96354e-015
lhumerus -33.7399 4.37304 86.9958
lradius 28.8969
lwrist 1.41737
lhand -23.2877 19.4449
lfingers 7.12502
lthumb 3.16527 49.4011
rfemur -5.69152 8.64304 26.3494
rtibia 28.2118
rfoot -18.9755 3.96821
rtoes 16.067
lfemur -18.5158 -9.88815 -6.68291
ltibia 31.3955
lfoot -5.13606 -20.5092
ltoes 10.3704
